<svg xmlns="http://www.w3.org/2000/svg" viewBox="0 0 32 32" fill="none"
     stroke-linecap="round" stroke-linejoin="round">

  <style>
    /* Default: white strokes for dark mode (app default) */
    :root { --c: #f4f4f5; }
    /* Light mode override */
    @media (prefers-color-scheme: light) { :root { --c: #09090b; } }

    .icon { stroke: var(--c); stroke-width: 1.5; }
    .rocket { stroke: var(--c); stroke-width: 1.5; }
    .glow  { fill: var(--c); }
  </style>

  <!-- ─── Mail (static, centred in 32×32) ─────────────────────────── -->
  <g transform="translate(4,4)" class="icon">
    <rect width="20" height="16" x="2" y="4" rx="2"/>
    <path d="m22 7-8.97 5.7a1.94 1.94 0 0 1-2.06 0L2 7"/>
  </g>

  <!-- ─── Glow inside envelope while rocket is inside ─────────────── -->
  <rect x="6" y="11" width="20" height="13" rx="1.5" stroke="none" class="glow">
    <animate attributeName="opacity"
             values="0;0;0;0;0.12;0.18;0.12;0;0;0"
             keyTimes="0;0.1;0.3;0.38;0.45;0.52;0.60;0.65;0.85;1"
             dur="2.8s" repeatCount="indefinite"/>
  </rect>

  <!-- ─── Rocket (animated) ────────────────────────────────────────── -->
  <g class="rocket">
    <animateTransform attributeName="transform" type="translate"
      values="2,35; 2,35; 10,22; 15,16; 17,14; 17,14; 21,10; 29,3; 33,-1; 2,35"
      keyTimes="0;   0.12; 0.32; 0.40; 0.45; 0.62; 0.68; 0.82; 0.90; 1"
      dur="2.8s" repeatCount="indefinite" calcMode="linear"/>

    <animate attributeName="opacity"
      values="0;0;1;1;0;0;0;1;1;0;0"
      keyTimes="0;0.10;0.14;0.38;0.42;0.45;0.64;0.68;0.82;0.90;1"
      dur="2.8s" repeatCount="indefinite"/>

    <g transform="translate(-4.94,-3.42) scale(0.38)">
      <path d="M4.5 16.5c-1.5 1.26-2 5-2 5s3.74-.5 5-2c.71-.84.7-2.13-.09-2.91a2.18 2.18 0 0 0-2.91-.09"/>
      <path d="M9 12a22 22 0 0 1 2-3.95A12.88 12.88 0 0 1 22 2c0 2.72-.78 7.5-6 11a22.4 22.4 0 0 1-4 2z"/>
      <path d="M9 12H4s.55-3.03 2-4c1.62-1.08 5 .05 5 .05"/>
      <path d="M12 15v5s3.03-.55 4-2c1.08-1.62 0-5 0-5"/>
    </g>
  </g>

</svg>
